# xmcd
#
# Track frame offsets: 
#        150
#        7985
#        17275
#        25618
#        34884
#        43508
#        55229
#        65034
#        74284
#        83993
#        96723
#        105431
#        116130
#        128882
#        138581
#        150087
#        159892
#        173876
#        182440
#        195081
#        206986
#        220732
#        232465
#        245497
#        258193
#        268598
#        279354
#        292492
#
# Disc length: 4061 seconds
#
# Revision: 0
# Processed by: cddbd v1.5.2PL0 Copyright (c) Steve Scherf et al.
# Submitted via: ExactAudioCopy v0.99pb4
#
DISCID=8f0fdb1c
DTITLE=Various Artist - Rare Bluegrass from Nashville: The 1960s
DYEAR=2010
DGENRE=Bluegrass
TTITLE0=Carl Story - Blackberry Blossom
TTITLE1=Carl Story - Action Speaks Louder Than Words
TTITLE2=Carl Story - Riding High
TTITLE3=Carl Story - No One Knew My Name
TTITLE4=Carl Story - Farwell Blues
TTITLE5=Carl Story - Who's That Man I Saw You With
TTITLE6=Carl Story - Orange Blossom Special
TTITLE7=Carl Story - Special Message
TTITLE8=Carl Story - Bile Them Cabbage Down
TTITLE9=Carl Story - Watching The Time
TTITLE10=The Now Generation - Dueling Banjos
TTITLE11=Mark Peek and The New Kentucky Travelers - Everywhere I Look
TTITLE12=Earl Mccollum - If God Had Wanted Us On The Moon
TTITLE13=Earl Mccollum - Stompin' At Charlotte
TTITLE14=The Dixie Ramblers - Keepsake Letter
TTITLE15=The Dixie Ramblers - McCollum's Breakdown
TTITLE16=Jim Low - Broke Again
TTITLE17=Tom James - Further Back In The Doghouse
TTITLE18=The Pinewood Ramblers - Will You Be Loving Another Man
TTITLE19=The Pinewood Ramblers - Train 45
TTITLE20=The Pinewood Ramblers - Georgia Rose
TTITLE21=The Pinewood Ramblers - Methodist Preacher
TTITLE22=The Wade Family - It Was Mama Praying For Me
TTITLE23=The Wade Family - Hill Tops Of Glory
TTITLE24=The Wade Family - Bring Back The Lost Sheep To The Fold
TTITLE25=The Wade Family - Lord Lead Me
TTITLE26=The Wade Family - March Around The Throne
TTITLE27=The Wade Family - Bright Eternal Day
EXTD=
EXTT0=
EXTT1=
EXTT2=
EXTT3=
EXTT4=
EXTT5=
EXTT6=
EXTT7=
EXTT8=
EXTT9=
EXTT10=
EXTT11=
EXTT12=
EXTT13=
EXTT14=
EXTT15=
EXTT16=
EXTT17=
EXTT18=
EXTT19=
EXTT20=
EXTT21=
EXTT22=
EXTT23=
EXTT24=
EXTT25=
EXTT26=
EXTT27=
PLAYORDER=
